<svg width="32" height="32" viewBox="0 0 70 70" fill="none" xmlns="http://www.w3.org/2000/svg">
  <!-- Background Circle with slate gradient -->
  <circle cx="35" cy="35" r="28" fill="url(#gradient1)" stroke="url(#gradient2)" stroke-width="2"/>
  
  <!-- Inner circle for depth -->
  <circle cx="35" cy="35" r="22" fill="url(#gradient3)" opacity="0.4"/>
  
  <!-- Letter G - Cleaner design -->
  <path d="M22 22C22 15 27 10 35 10C43 10 48 15 48 22C48 29 43 34 35 34C32 34 30 33 29 32L29 40L41 40L41 37L31 37L31 32C32 33 33 34 35 34C40 34 46 28 46 22C46 16 40 10 35 10C30 10 24 16 24 22L22 22Z" fill="white"/>
  
  <!-- Gradients that match slate theme -->
  <defs>
    <linearGradient id="gradient1" x1="0%" y1="0%" x2="100%" y2="100%">
      <stop offset="0%" style="stop-color:#475569;stop-opacity:1" />
      <stop offset="50%" style="stop-color:#334155;stop-opacity:1" />
      <stop offset="100%" style="stop-color:#1E293B;stop-opacity:1" />
    </linearGradient>
    <linearGradient id="gradient2" x1="0%" y1="0%" x2="100%" y2="100%">
      <stop offset="0%" style="stop-color:#60A5FA;stop-opacity:0.6" />
      <stop offset="100%" style="stop-color:#3B82F6;stop-opacity:0.8" />
    </linearGradient>
    <linearGradient id="gradient3" x1="0%" y1="0%" x2="100%" y2="100%">
      <stop offset="0%" style="stop-color:#E2E8F0;stop-opacity:0.3" />
      <stop offset="100%" style="stop-color:#CBD5E1;stop-opacity:0.2" />
    </linearGradient>
  </defs>
</svg>